<svg id="Capa_1" enable-background="new 0 0 512.193 512.193" height="512" viewBox="0 0 512.193 512.193" width="512" xmlns="http://www.w3.org/2000/svg"><g><path d="m432.222 327.162c-10.878-23.312-38.755-33.766-62.457-22.725-.3.14 6.094-3.049-113.671 56.744-120.408-60.122-113.376-56.614-113.657-56.745-23.541-10.978-51.48-.811-62.459 22.734-10.921 23.42-.812 51.346 22.532 62.365l48.4 24.167-17.871 8.922c-23.341 11.02-33.447 38.949-22.529 62.363 11.516 24.732 40.93 33.512 62.818 22.568l82.775-41.328 82.762 41.324c21.927 10.919 51.287 2.175 62.821-22.559 10.921-23.42.812-51.346-22.532-62.365l-17.87-8.923 48.404-24.17c23.334-11.016 33.444-38.942 22.534-62.372zm-272.088 153.449c-8.413 3.822-18.455.241-22.432-8.296-3.962-8.498-.275-18.635 8.218-22.598 2.692-1.253-8.236 4.118 38.569-19.249l38.036 18.992zm206.141-30.889c13.639 6.36 12.824 26.217-1.37 31.382-4.214 1.534-8.768 1.356-12.845-.497-246.258-122.961-236.378-118.031-236.67-118.167-8.496-3.962-12.185-14.096-8.223-22.592 3.948-8.466 13.956-12.148 22.438-8.293 246.257 122.961 236.378 118.031 236.67 118.167zm30.53-87.281c-.314.147 2.754-1.381-69.098 34.498l-38.034-18.991 92.916-46.388c8.68-3.943 18.598.04 22.441 8.277 3.959 8.501.269 18.641-8.225 22.604z"/><path d="m255.277 319.024c1.744.139 3.45.097 5.206-.074 67.168-2.291 122.615-57.449 122.615-127.146 0-124.997-52.544-167.299-98.32-190.187-11.617-5.81-24.668 4.959-21.147 17.478 14.263 50.704-.171 82.782-10.073 97.428-11.575-9.304-29.788-26.732-38.327-49.714-3.264-8.79-13.728-12.468-21.778-7.638-61.297 36.779-64.253 128.381-64.349 132.262-.006.244-.005.345-.005.6-.001 69.755 56.526 126.546 126.178 126.991zm.858-29.99c-.004 0-.009-.001-.014-.001.19-.01.269.001.014.001zm-60.561-193.827c19.488 33.915 51.161 53.528 52.714 54.476 5.648 3.447 12.894 2.782 17.824-1.638 1.825-1.636 38.815-35.767 32.883-102.476 29.668 23.24 54.104 63.237 54.104 146.236 0 35.905-19.344 67.435-48.771 84.369 9.812-25.359 14.771-61.507 14.771-108.139 0-8.284-6.716-15-15-15s-15 6.716-15 15c0 64.224-9.767 94.392-17.959 108.391-5.919 10.113-11.248 12.168-13.054 12.584-.535.011-1.071.018-1.608.02-1.157-.145-8.006-1.359-15.177-10.285-8.304-10.336-18.202-32.381-18.202-78.71 0-8.284-6.716-15-15-15s-15 6.716-15 15c0 30.16 3.879 54.969 11.555 74.198-27.338-17.17-45.552-47.586-45.555-82.183.131-3.448 2.966-64.215 36.475-96.843z"/></g></svg>